<svg xmlns="http://www.w3.org/2000/svg" width="256" height="256"><path fill-opacity=".098" d="M0 128.004v128.004l128.25-.254 128.25-.254.254-127.75L257.008 0H0v128.004m.485.496c0 70.4.119 99.053.265 63.672.146-35.38.146-92.98 0-128C.604 29.153.485 58.1.485 128.5" fill="#1976D2" fill-rule="evenodd"/><path fill-opacity=".33" d="M220 1.076c0 .474-.787.616-1.75.317-1.289-.401-1.223-.228.25.656 3.833 2.299 4.543 3.956 2.82 6.585-1.469 2.242-1.454 2.354.227 1.709 1.379-.529 1.656-.314 1.183.919-.34.885-.08 1.859.576 2.164.657.306.205.312-1.005.014-2.17-.535-2.177-.499-.549 2.759 1.913 3.825 2.331 6.801.956 6.801-.531 0-.691 1.337-.358 3 .371 1.855.187 3-.482 3-.595 0-.828.661-.519 1.468.31.807.161 1.717-.331 2.021-.492.304-.724 1.444-.514 2.532.252 1.31-.163 1.979-1.228 1.979-.885 0-1.313.296-.951.658.362.362.099 1.348-.584 2.192-.99 1.224-.988 1.382.009.783 1.723-1.035 1.578 1.214-.312 4.839-1.266 2.428-1.311 3.161-.244 4 1.397 1.1 2.124 4.842.779 4.011-.441-.273-.974.02-1.184.649-.28.84-1.362.79-4.06-.185-4.165-1.506-6.253-.484-3.227 1.58C216.023 59.974 217.43 62 214 62c-1.1 0-2 .115-2 .257 0 .141.436 1.777.969 3.635.533 1.859.687 3.097.342 2.752-1.022-1.022-3.238 1.383-2.661 2.887.34.886-.402 1.62-2.059 2.036-1.842.462-2.591 1.31-2.591 2.934 0 1.257-.703 2.555-1.563 2.885-1.18.452-1.422 1.486-.988 4.218.478 3.007.311 3.518-.989 3.019-.953-.366-1.309-.188-.912.455.359.58-.136 1.631-1.099 2.336-1.223.894-1.404 1.495-.6 1.992.633.392 1.151.374 1.151-.038 0-.413.708.123 1.574 1.191.866 1.067 1.289 1.379.941.691-.977-1.929.968-1.478 2.917.675 1.679 1.855 1.639 1.937-1.095 2.25-3.417.391-3.866 3.179-.587 3.645 1.238.175 2.25.536 2.25.801 0 1.782-4.781 8.373-6 8.272-2.773-.228-3.719.098-6.403 2.209-2.117 1.665-2.431 2.393-1.512 3.5.886 1.068.87 1.398-.07 1.398-.676 0-.984.638-.685 1.417.299.78-.131 1.677-.957 1.993-.825.317-1.251.979-.947 1.471 1.025 1.658-5.389 2.463-14.096 1.769-4.634-.37-5.132-.218-4.807 1.469.229 1.188-.209 1.881-1.187 1.881-.977 0-1.334.563-.965 1.523.473 1.235.217 1.327-1.356.485-1.133-.606-1.704-1.654-1.373-2.518.312-.813.939-1.249 1.394-.968.454.281 1.108.053 1.454-.506.345-.559.188-1.016-.349-1.016-.538 0-1.694-.275-2.571-.611-1.166-.448-1.427-.18-.974 1 .34.886.12 1.611-.489 1.611s-1.107-.477-1.107-1.059-.47-.769-1.044-.414c-.574.355-1.734.072-2.578-.628-1.354-1.124-1.261-1.483.794-3.064 1.28-.985 1.766-1.801 1.078-1.813-1.795-.032-1.549-2.022.25-2.022 1.708 0 2.043-1.652.443-2.186-.582-.194-.76-1.128-.395-2.077.364-.949 1.059-1.48 1.545-1.179.486.3.616-.152.289-1.006-.431-1.122.057-1.574 1.761-1.631 1.521-.051 1.832-.285.875-.661-.815-.32-2.053-1.152-2.75-1.849-1.44-1.44-1.738-3.819-.373-2.976.493.305 1.153-.119 1.469-.941.315-.822.137-1.494-.395-1.494-.533 0-.969-.675-.969-1.5s-.525-1.5-1.167-1.5c-.641 0-.873-.293-.515-.651.358-.358-.13-1.292-1.084-2.074-.953-.783-1.219-1.168-.589-.855.63.313 1.392-.073 1.693-.857.369-.964-.029-1.315-1.231-1.084-.978.189-2.414-.06-3.192-.553-1.219-.772-1.219-.897.002-.911 1.346-.014.652-1.461-.75-1.564-.367-.027-1.701-.402-2.965-.833-1.454-.495-2.855-.321-3.816.477-.835.692-3.138 1.292-5.118 1.332-3.559.072-3.616.141-4.937 5.938-1.632 7.162-8.091 15.635-11.918 15.635-1.907 0-2.332-.451-2.065-2.197.184-1.209.84-2.366 1.457-2.571.746-.249.477-1.58-.801-3.964-1.058-1.974-1.674-3.992-1.37-4.486.771-1.246 1.362-5.37 1.635-11.403.136-3.012.654-4.959 1.26-4.728.64.245.877-1.189.628-3.803-.306-3.212.025-4.508 1.412-5.522 1.125-.823 1.32-1.326.515-1.326-.717 0-1.051-.642-.747-1.435.303-.79.013-1.656-.643-1.924-.854-.35-.767-.795.306-1.565 1.264-.906 1.282-1.217.115-1.969-1.118-.72-.999-1.099.618-1.964 2.242-1.2 3.384-.612 2.63 1.354-.275.715-.019 1.598.569 1.961.587.363 1.068 1.983 1.068 3.601 0 1.618.45 2.941 1 2.941s.947.338.882.75c-.295 1.867.192 3.322.954 2.851.654-.404.818-5.101.178-5.101-.083 0-.306-1.155-.495-2.568-.774-5.781-2.684-11.083-3.835-10.641-1.55.595-5.046-3.949-3.685-4.79.55-.341 1.451-.341 2.001-.001.55.34 1-.072 1-.915 0-.844-1.35-2.232-3-3.085-1.65-.853-3-1.791-3-2.085 0-.293.562-.209 1.25.187s.19-.444-1.105-1.867-2.056-3.07-1.691-3.661c.365-.591.249-1.074-.259-1.074s-3.235-2.275-6.059-5.055C116.311 32.164 114 30.191 114 30.56c0 .368-1.16-.09-2.578-1.019C107.016 26.654 96.145 23 91.962 23 87.295 23 76 25.947 76 27.164c0 .46-1.07.836-2.378.836-1.307 0-2.937.675-3.622 1.5S67.888 31 66.828 31c-2.748 0-7.019 2.391-15.726 8.803-18.087 13.322-32.893 33.642-38.037 52.204-2.454 8.855-2.599 16.31-.479 24.493.855 3.3 1.812 7.35 2.126 9 .681 3.582 6.072 12.292 9.676 15.633 2.697 2.501 8.346 5.61 15.112 8.319 2.2.88 5.17 2.204 6.601 2.942 2.391 1.233 2.875 1.102 6-1.626 1.869-1.632 3.399-3.485 3.399-4.118 0-.632.988-1.584 2.195-2.114 1.208-.53 2.762-2.021 3.453-3.313.818-1.527 1.887-2.186 3.055-1.88.988.258 1.809.174 1.825-.187.015-.361 2.669-2.422 5.898-4.581 3.499-2.339 6.511-5.269 7.456-7.25.872-1.829 2.091-3.325 2.709-3.325.618 0 .864-.675.547-1.5-.316-.825-.175-1.5.314-1.5s1.184-1.345 1.545-2.989c.361-1.643 1.072-3.245 1.58-3.559.508-.313.923-1.239.923-2.057 0-.818 1.982-5.629 4.405-10.691 5.946-12.424 6.77-15.446 6.498-23.83-.357-10.999-4.773-19.161-13.319-24.611-3.413-2.177-3.693-2.623-2.178-3.471 2.872-1.607 6.237-.054 11.683 5.392 7.291 7.291 10.253 14.201 11.282 26.316.317 3.731-2.307 13.236-5.66 20.5a4796.317 4796.317 0 00-5.999 13.071c-1.903 4.164-4.755 9.561-6.336 11.993-6.523 10.03-14.607 24.221-20.966 36.806-6.658 13.175-10.707 18.612-13.16 17.672-.687-.264-1.25.005-1.25.596 0 .592-.675.817-1.5.5-.914-.35-1.5-.001-1.5.893 0 .808-.45 1.469-1 1.469s-1-.402-1-.893-.698-1.161-1.552-1.489c-.89-.341-1.291-.173-.941.393.336.544-.428 1.047-1.698 1.118-1.27.071-3.434.277-4.809.459-8.006 1.057-9.985.794-10.07-1.338-.059-1.453-.186-1.492-.75-.228-.796 1.781-2.596 1.829-6.495.173-1.548-.657-3.434-1.195-4.191-1.195-.757 0-1.642-.43-1.967-.956-.325-.526-1.364-.709-2.309-.406-1.463.469-1.495.388-.218-.544 1.333-.972 1.333-1.204 0-2.083-.825-.545-2.161-.746-2.97-.448-.808.299-1.154.228-.769-.157.674-.674-5.977-6.321-7.511-6.378-1.166-.043-.892 60.921.293 65.188 1.262 4.545 3.443 6.882 5.736 6.147 1.447-.464 1.484-.384.229.501-2.264 1.598.156 3.551 3.141 2.534 1.293-.44 2.576-.829 2.851-.864.275-.036.95-.315 1.5-.621s2.35-.618 4-.694l3-.139-3 1.38-3 1.38 4.25-.084c2.337-.046 4.25-.476 4.25-.955s.9-.39 2 .199c1.356.726 2 .737 2 .035 0-.569.477-1.035 1.059-1.035s.81.403.506.895c-.305.493.096 1.145.89 1.449 1.011.388 1.258.072.824-1.059-.39-1.016-.217-1.365.466-.943.596.369 1.274.105 1.507-.586.324-.962.856-.905 2.277.244 1.033.835 1.525.951 1.112.263-.433-.721.174-2.182 1.455-3.5 1.209-1.245 1.88-1.7 1.492-1.013-.871 1.543.613 1.649 2.111.151 1.154-1.154 5.301-.344 5.301 1.035 0 .441 1.425.636 3.167.433 3.595-.419 5.149-1.367 2.25-1.373-1.446-.003-1.123-.488 1.316-1.975 1.778-1.084 4.028-1.715 5-1.402 1.431.462 1.492.375.319-.456-1.171-.83-.941-1.153 1.209-1.692 1.461-.367 3.238-1.384 3.948-2.261.955-1.179.969-1.4.052-.85-.841.505-1.047.246-.643-.808.328-.854.972-1.552 1.432-1.552.461 0 1.634-1.35 2.609-3 .975-1.65 2.405-3 3.179-3 1.12 0 1.16-.298.196-1.459-.997-1.202-.755-1.573 1.378-2.108 1.423-.357 2.588-1.078 2.588-1.6 0-.523-.508-.637-1.13-.253-.685.424-.949.152-.671-.691.252-.764 1.508-1.542 2.791-1.73 1.805-.263 2.014-.543.922-1.234-1.142-.724-1.078-.897.338-.91.963-.008 1.966.098 2.231.235.264.137 1.195-.77 2.068-2.017.873-1.246 1.976-2.027 2.45-1.733.475.293 1.145.075 1.491-.484.878-1.421-2.83-1.276-4.273.167-.651.651-1.443.924-1.76.607-.317-.317.913-1.973 2.733-3.679 3.301-3.094 5.568-4.146 4.215-1.956-.488.788-.269.879.69.285 1.318-.816 3.328-1.077 10.27-1.334 2.819-.104 2.839-.146 1.233-2.597-1.579-2.41-1.559-2.484.635-2.25 1.849.196 2.219-.199 2.005-2.141-.196-1.785.055-2.138 1-1.411 1.413 1.089 5.092-1.987 3.929-3.284-.367-.409-.101-.418.59-.02.734.423 1.507.074 1.857-.84.652-1.699 3.386-2.174 3.386-.588 0 .551 1.312.713 3.018.371 2.545-.509 2.917-.339 2.371 1.083-.393 1.024-1.262 1.45-2.212 1.085-1.268-.486-1.228-.227.211 1.363 1.715 1.894 1.696 1.978-.556 2.406l-2.332.445 2.323.136c1.65.097 2.219.644 1.962 1.886-.199.963-1.148 1.685-2.108 1.605-1.266-.105-1.469.191-.736 1.074.691.832.638 1.592-.165 2.395-.901.901-.88 1.176.091 1.176.797 0 1.04.716.655 1.929-.492 1.552-.066 1.992 2.18 2.25 3.007.346 5.206 3.725 7.367 11.321 1.351 4.747 2.605 5.743 5.377 4.267 1.844-.983 1.914-.925.682.569-1.54 1.866-.873 2.133 1.779.714 1.188-.636 3.315-.487 6.434.452 4.201 1.265 4.993 1.179 4.853-.526-.024-.288.829-1.638 1.894-3 1.147-1.465 1.686-1.765 1.321-.734-.916 2.586 1.798 3.156 7.829 1.645 2.894-.726 7.155-1.183 9.468-1.017 2.313.167 4.788-.057 5.499-.497.712-.44 2.491-.674 3.955-.52 1.464.153 4.432-.625 6.597-1.729 4.926-2.513 13.713-12.018 15.385-16.64 1.378-3.81 2.858-4.609 2.858-1.543 0 4.524 3.154 2.947 4.381-2.191.361-1.512 1.099-2.75 1.638-2.75.54 0 .981-.873.981-1.941s.457-2.224 1.016-2.569c.559-.346.792-.992.516-1.438-.658-1.065 2.348-7.052 3.541-7.052.51 0 .927-.631.927-1.401 0-.771 1.563-2.323 3.472-3.45 2.101-1.239 4.57-4.102 6.25-7.244 1.528-2.858 3.453-5.931 4.278-6.831.825-.899 2.174-2.971 2.998-4.604.824-1.634 2.062-3.33 2.75-3.77.689-.44 1.252-1.679 1.252-2.753 0-1.075.9-3.633 2-5.686 1.1-2.052 2-4.751 2-5.996 0-1.246.338-2.265.75-2.265s.839-1.012.949-2.25c.448-5.068 1.1-7.238 2.111-7.02.587.126.885-.719.662-1.878-.224-1.158.125-3.062.773-4.229.649-1.168 1.069-2.508.933-2.977-.218-.754 5.068-7.844 8.541-11.457.694-.722 2.183-1.381 3.309-1.466 2.036-.153 2.047-.42 1.76-44.689L255.5 19.5l-3-5.423c-2.931-5.299-9.882-11.577-11.625-10.5-.481.298-.875.038-.875-.577s-.419-.859-.931-.543c-.512.317-1.225.1-1.584-.481-.359-.582-1.478-.796-2.485-.476-1.007.32-2.115.124-2.46-.436C231.782-.161 220-.15 220 1.076M137.6 3.6c-.356.927-.422 1.911-.147 2.186.275.275.791-.259 1.147-1.186.356-.927.422-1.911.147-2.186-.275-.275-.791.259-1.147 1.186m68.038 3.9c.317.825.753 1.5.969 1.5.216 0 .393-.675.393-1.5s-.436-1.5-.969-1.5c-.532 0-.709.675-.393 1.5M66.75 10.662c.688.278 1.813.278 2.5 0 .688-.277.125-.504-1.25-.504s-1.937.227-1.25.504m91 25.044c1.238.238 3.262.238 4.5 0 1.238-.239.225-.434-2.25-.434s-3.488.195-2.25.434m11 .956c.688.278 1.813.278 2.5 0 .688-.277.125-.504-1.25-.504s-1.937.227-1.25.504M135.314 49.75c-.342.962-.805 2.087-1.027 2.5-.223.413-.001.75.493.75.495 0 1.412-1.125 2.038-2.5.728-1.598.775-2.5.129-2.5-.555 0-1.29.788-1.633 1.75M214.5 52c-.34.55-.168 1 .382 1s1.278-.45 1.618-1c.34-.55.168-1-.382-1s-1.278.45-1.618 1M175 57c0 .575 2.87.97 6.75.93 4.698-.049 6.142-.332 4.75-.93-2.809-1.207-11.5-1.207-11.5 0M74.75 60.662c2.26.912 1.304 2.582-1.203 2.102-1.925-.368-3.567.621-7.623 4.593-2.843 2.784-4.661 5.231-4.04 5.438.621.207.874.787.563 1.29-1.067 1.728.768.912 3.909-1.737 1.729-1.458 3.012-3.258 2.85-4-.161-.741.203-1.348.809-1.348.607 0 .825.45.485 1-.838 1.355-.344 1.268 3.403-.602 1.766-.881 4.111-1.366 5.211-1.078 1.624.424 1.782.259.838-.878-.876-1.055-1.65-1.139-3.143-.34-1.089.583-2.201.84-2.47.57-.269-.269.421-.779 1.535-1.132 1.381-.438 1.827-1.182 1.405-2.341-.523-1.437-.244-1.39 1.801.301l2.42 2-1.905-2.25c-1.048-1.237-2.848-2.214-4-2.171-1.152.043-1.532.306-.845.583m8.063 14.021c.721.289 1.584.253 1.916-.079.332-.332-.258-.568-1.312-.525-1.165.048-1.402.285-.604.604M201 77.031c0 .533.675.969 1.5.969s1.5-.177 1.5-.393c0-.216-.675-.652-1.5-.969-.825-.316-1.5-.139-1.5.393M56.564 81.707c-.542 1.425-.428 1.54.56.56.684-.679.991-1.486.683-1.793-.308-.308-.867.247-1.243 1.233M153 89c0 .55.477 1 1.059 1s.781-.45.441-1-.816-1-1.059-1-.441.45-.441 1M51.978 90.25c-.012.688-.902 2.375-1.978 3.75-2.154 2.754-2.488 4-1.071 4 1.721 0 3.991-3.045 3.406-4.57-.347-.904-.082-1.395.659-1.221.682.16 1.373-.496 1.535-1.459.164-.979-.328-1.75-1.117-1.75-.777 0-1.422.563-1.434 1.25M165 98c0 .55.45 1 1 1s1-.45 1-1-.45-1-1-1-1 .45-1 1m3.5 1c-.34.55-.141 1 .441 1S170 99.55 170 99s-.198-1-.441-1-.719.45-1.059 1m-122.916 2.641c-.527 1.373-.38 1.435.893.378 1.735-1.44 1.916-2.019.63-2.019-.491 0-1.176.739-1.523 1.641m82.074-.09c.607 1.582 2.342 1.994 2.342.556 0-.491-.652-1.143-1.449-1.449-.969-.372-1.265-.076-.893.893M167.5 103c.34.55.816 1 1.059 1s.441-.45.441-1-.477-1-1.059-1-.781.45-.441 1m25.529 16.961c-.809.512-1.211 1.191-.893 1.509.319.318 1.148-.108 1.844-.946 1.443-1.738 1.166-1.902-.951-.563m-11.347 1.652c.604 1.575 1.934 1.817 2.748.501.301-.488-.314-1.112-1.366-1.387-1.34-.351-1.755-.085-1.382.886m-24.932 3.049c.688.278 1.813.278 2.5 0 .688-.277.125-.504-1.25-.504s-1.937.227-1.25.504m5.757 1.349c.342.553-.516.989-1.948.989-1.407 0-2.559.378-2.559.839 0 1.148 4.611 3.161 7.238 3.161 2.044 0 2.058-.063.3-1.348-1.014-.742-1.552-1.82-1.197-2.396.356-.575-.048-1.313-.899-1.64-.885-.34-1.285-.171-.935.395M173 126c0 .55.702 1 1.559 1s1.281-.45.941-1c-.34-.55-1.041-1-1.559-1s-.941.45-.941 1M6.031 128.5c0 .55.436 1.675.969 2.5.533.825.969 1.05.969.5S7.533 129.825 7 129c-.533-.825-.969-1.05-.969-.5m154.782.183c.721.289 1.584.253 1.916-.079.332-.332-.258-.568-1.312-.525-1.165.048-1.402.285-.604.604M175 129c-.901.582-1.025.975-.309.985.655.008 1.469-.435 1.809-.985.767-1.242.421-1.242-1.5 0m-5.441 2.532c-1.068.807-1.46 1.468-.873 1.468.588 0 1.629-.675 2.314-1.5 1.557-1.876 1.067-1.866-1.441.032m22.527 16.968c.104 1.894 1.77 5.084 1.828 3.5.031-.825-.381-2.175-.914-3-.533-.825-.945-1.05-.914-.5m-9.541 20.689c-.963 5.611-1.746 11.205-1.899 13.561-.08 1.238-.477 2.25-.883 2.25-.993 0-3.902 7.084-3.457 8.419.195.583-.582 1.807-1.726 2.719-1.144.912-2.98 3.388-4.08 5.503-2.457 4.724-4.606 7.359-6 7.359-.581 0-1.862.942-2.849 2.094-2.163 2.527-1.433 5.435 1.107 4.413.958-.385 2.417-.809 3.242-.943.825-.133 3.075-2.563 5-5.4 3.285-4.842 6-6.838 8.629-6.344.621.117 1.367-.695 1.657-1.804.408-1.56 1.395-2.034 4.37-2.095 2.114-.043 3.279-.307 2.588-.585-.691-.279-.989-.94-.661-1.47.367-.594 1.131-.518 1.993.197 1.166.967.944 1.602-1.339 3.83-2.76 2.692-3.668 3.928-7.246 9.857-1.079 1.787-2.466 3.25-3.083 3.25s-.863.675-.546 1.5c.316.825.064 1.5-.56 1.5-.624 0-.877.258-.562.574 1.115 1.115 6.582-2.565 10.612-7.143 3.496-3.972 8.148-13.374 8.148-16.469 0-.529-1.012-.955-2.25-.947-1.819.013-1.963.201-.75.985 1.149.743.786.973-1.553.985l-3.052.015.676-5.75c.371-3.162.62-9.575.552-14.25-.122-8.45-.139-8.502-2.816-8.811-2.355-.272-2.765.105-3.262 3M22.597 181.844c-.346.56-.142 1.319.453 1.687 1.538.95 2.53-.351 1.246-1.635-.718-.718-1.277-.735-1.699-.052m15.028-.04a10.46 10.46 0 011.474 1.53c.343.458.861.213 1.152-.546.333-.867-.214-1.435-1.474-1.53-1.102-.083-1.62.163-1.152.546M195 183.918c0 .505-.273 1.63-.607 2.5-.334.87-.207 1.582.282 1.582s.982-1.125 1.096-2.5c.113-1.375-.013-2.5-.282-2.5-.269 0-.489.413-.489.918m-39 7.061c-.825.521-1.516 1.302-1.535 1.735-.02.432-.627 1.853-1.35 3.157-2.051 3.699.432 1.561 2.751-2.368 1.136-1.927 1.969-3.496 1.85-3.488-.119.009-.891.442-1.716.964m-45.686 1.397c.325.848-.107 1.327-1.127 1.25-1.157-.088-1.673.705-1.717 2.635l-.063 2.762 2.26-2.762c2.455-2.997 2.982-5.261 1.226-5.261-.609 0-.869.619-.579 1.376M95 201c1.958 1.266 3.282 1.266 2.5 0-.34-.55-1.379-.993-2.309-.985-1.457.014-1.484.15-.191.985m51.174 3.055c-1.279 1.62-1.842 2.945-1.25 2.945.592 0 1.076-.45 1.076-1s.659-1 1.465-1c.805 0 1.946-.9 2.535-2 1.702-3.18-1.088-2.411-3.826 1.055M89 205.059c0 .582.45.781 1 .441s1-.816 1-1.059-.45-.441-1-.441-1 .477-1 1.059m85.552 2.883c-.966 1.068-1.522 2.531-1.234 3.25.341.851.552.696.603-.442.043-.963.481-1.75.972-1.75s1.152-.675 1.469-1.5c.769-2.004.301-1.89-1.81.442m-37.451 6.68c-2.237 2.542-3.812 5.037-3.498 5.544.313.507.001 1.689-.694 2.628-.695.938.053.367 1.664-1.27 1.61-1.637 2.988-3.212 3.062-3.5.756-2.947 1.738-5.024 2.375-5.024.427 0 1.035-.675 1.352-1.5.929-2.421.055-1.781-4.261 3.122m13.631 4.293c-.468 1.792-.101 2.081 2.612 2.055 2.867-.028 2.973-.135 1.156-1.165-1.1-.624-2.275-1.548-2.611-2.054-.336-.506-.857.018-1.157 1.164M227 227c-1.925 1.054-3.14 1.935-2.7 1.958 1.059.056 6.7-2.877 6.7-3.484 0-.654-.059-.632-4 1.526m11 1.722c3.425 1.287 7.058 4.597 8.592 7.83.9 1.897 1.978 3.448 2.396 3.448.419 0-.118-1.776-1.192-3.948-1.837-3.713-7.457-8.148-10.103-7.973-.656.043-.518.333.307.643m-99.187.961c.721.289 1.584.253 1.916-.079.332-.332-.258-.568-1.312-.525-1.165.048-1.402.285-.604.604M39 243.5c-.718.865-.815 1.5-.229 1.5.558 0 1.274-.675 1.591-1.5.316-.825.419-1.5.229-1.5-.19 0-.906.675-1.591 1.5m193-1.085c0 .751 10.084 7.834 10.525 7.393.237-.237-1.746-2.091-4.406-4.119-4.497-3.43-6.119-4.298-6.119-3.274m-14.733 1.61c-3.268 1.314-1.909 4.164 1.587 3.33 3.603-.86 4.146-1.242 4.146-2.914 0-1.606-2.35-1.777-5.733-.416M157 247.441c0 1.343.457 2.724 1.016 3.069.559.346.783 1.006.497 1.469-.66 1.067.442 4.021 1.499 4.021.439 0 .658-1.912.486-4.25-.171-2.338-.353-4.812-.405-5.5-.181-2.424-3.093-1.303-3.093 1.191m43.51-.425c.346.559 1.047.758 1.559.441 1.387-.857 1.129-1.457-.628-1.457-.857 0-1.276.457-.931 1.016" fill="#1976D2" fill-rule="evenodd"/><path fill-opacity=".195" d="M230.673 21.122c-1.701 1.891-1.718 2.263-.25 5.356 4.736 9.981-1.756 39.341-13.111 59.294-4.965 8.725-6.322 10.387-9.312 11.404-3.191 1.085-3.299 1.24-1.216 1.757 2.191.544 2.016.969-4.325 10.517-7.947 11.967-11.246 16.309-17.901 23.564-2.782 3.033-7.308 8.575-10.058 12.317a2232.14 2232.14 0 01-10.765 14.485c-3.17 4.226-7.736 10.635-10.145 14.242-2.409 3.607-6.677 9.593-9.485 13.303-4.379 5.786-5.105 6.382-5.105 4.192 0-1.404-.505-2.553-1.122-2.553-.79 0-.764-.432.087-1.458.666-.802 1.362-4.065 1.547-7.25.293-5.047 1.014-9.792 1.489-9.792.084 0 .376-2.018.649-4.485.272-2.467.977-5.065 1.565-5.774.589-.709.822-1.537.519-1.84-.303-.304-.094-1.98.465-3.726s1.117-4.557 1.24-6.247c.351-4.832 1.601-6.139 3.168-3.313.727 1.312 1.338 1.807 1.358 1.1.019-.707-.677-2.373-1.548-3.701-1.057-1.614-1.323-3.18-.802-4.715.43-1.264.692-2.637.583-3.049-.109-.412.307-.75.924-.75.822 0 .826-.357.017-1.332-.818-.986-.742-1.829.295-3.247.925-1.265 1.072-2.311.435-3.079-.627-.756-.598-1.391.082-1.812.577-.356 1.049-1.467 1.049-2.467 0-1.001 1.012-2.57 2.25-3.487 1.238-.918 1.677-1.39.976-1.049-.979.477-1.119-.378-.604-3.703.367-2.378 1.053-5.366 1.523-6.639 1.506-4.077.922-8.622-1.58-12.305-4.205-6.188-11.887-7.619-12.162-2.266-.3 5.87-1.938 9.46-6.827 14.96-2.897 3.259-11.709 14.476-19.582 24.926-22.015 29.22-28.626 37.195-26.723 32.235.337-.876.93-3.291 1.32-5.366.389-2.075 1.54-4.667 2.558-5.759 1.018-1.093 1.851-2.522 1.851-3.176 0-.654.746-1.807 1.658-2.562 1.988-1.645 5.408-8.956 4.715-10.078-.27-.437-.029-.794.537-.794.565 0 .812-.562.548-1.25-.505-1.317 3.963-6.75 5.551-6.75.511 0 .641-.749.29-1.664-.438-1.141-.26-1.43.565-.92.845.522 1.076.039.775-1.62-.567-3.13 1.82-6.488 3.58-5.035.922.761 2.232.565 4.677-.703 3.956-2.051 2.82-3.41-1.754-2.099-3.474.997-3.875.393-1.674-2.518.808-1.067 1.483-2.728 1.5-3.691.018-.963.482-1.75 1.032-1.75s1-.661 1-1.469.88-3.171 1.955-5.25c2.447-4.734 3.806-12.283 4.43-24.608.146-2.877.824-5.193 1.68-5.734.997-.631 1.053-.913.185-.924-1.685-.02-1.578-3.154.227-6.632.812-1.566 1.771-5.454 2.132-8.64.599-5.297.837-5.742 2.773-5.191 1.352.385.975-.124-1.043-1.406-1.738-1.104-3.48-3.052-3.872-4.327-1.08-3.523-7.233-10.646-11.548-13.37-2.116-1.336-6.81-3.615-10.431-5.064-5.676-2.273-7.653-2.575-14.327-2.188-4.375.253-9.206 1.178-11.106 2.126-1.849.922-4.123 1.677-5.054 1.677-.93 0-2.52.916-3.533 2.035-1.013 1.12-2.367 1.834-3.009 1.588-2.904-1.115-21.522 12.335-30.05 21.707-12.064 13.259-20.03 26.959-23.45 40.331-2.329 9.104-2.391 12.692-.369 21.339a882.07 882.07 0 012.3 10.082c1.348 6.187 7.899 14.825 14.461 19.066 3.277 2.119 7.352 3.935 9.054 4.037l5.12.302c1.114.064 2.606.476 3.317.915 1.765 1.091 2.27.36 2.378-3.446.084-2.96.211-3.086 1.426-1.425.733 1.002 1.603 1.554 1.932 1.224.962-.962-2.961-11.049-4.497-11.561-.983-.328-1.202.048-.736 1.262.365.952.936 2.817 1.27 4.146.553 2.202.398 2.335-1.754 1.503-1.299-.502-2.254-1.39-2.123-1.973.131-.583-.335-.84-1.035-.571-1.765.677-5.703-3.211-5.703-5.631 0-1.096-.658-2.245-1.462-2.554-1.258-.483-1.231-.915.194-3.09 1.545-2.358 1.543-2.612-.027-3.759-.928-.679-1.8-2.867-1.944-4.877-.144-2.005-.502-3.647-.797-3.648-.966-.004-.611-4.486.41-5.176.636-.429.523-1.245-.311-2.25-1.002-1.207-1.036-1.904-.144-2.979.775-.933.815-1.519.121-1.75-.642-.214-.114-2.909 1.375-7.014 1.33-3.667 2.211-6.874 1.957-7.128C36.615 87.948 42.145 77 43.284 77c.577 0 .797-.253.488-.562-.309-.309.52-1.729 1.843-3.156 1.323-1.428 2.168-2.832 1.879-3.122-.488-.488 1.884-3.247 8.756-10.186 1.513-1.527 2.75-3.222 2.75-3.767 0-.545 1.143-1.277 2.541-1.628 1.397-.351 2.271-1.074 1.941-1.608-.33-.534-.192-.971.306-.971s1.944-.9 3.212-2c1.268-1.1 2.944-2 3.724-2 .781 0 2.075-.656 2.876-1.458.802-.801 2.147-1.193 2.989-.87 1.008.387 1.72-.139 2.087-1.542.307-1.172.981-2.13 1.5-2.13.518 0 .624.515.235 1.144-.389.629.597.439 2.191-.422 1.594-.861 3.678-1.808 4.631-2.106.988-.308 1.5-1.149 1.19-1.956-.655-1.707 4.921-3.049 11.327-2.724 2.499.126 4.25-.228 4.25-.86 0-.592-.648-1.076-1.441-1.076s-1.749-.498-2.125-1.107c-.844-1.366 2.393-.494 8.066 2.172 5.43 2.552 6.49 4.663 7.566 15.068.862 8.327.751 9.421-1.639 16.15-1.41 3.969-3.446 10.012-4.524 13.428-1.078 3.416-3.8 10.166-6.049 15-2.249 4.834-6.017 12.921-8.372 17.97-2.354 5.05-7.196 13.825-10.758 19.5-6.987 11.132-27.831 50.152-30.161 56.462-.784 2.121-2.317 6.22-3.408 9.108-2.02 5.348-2.044 11.719-.058 15.43 1.089 2.035 5.971 4.819 8.451 4.819 1.534 0 10.8-9.347 11.077-11.175.069-.454.181-1.245.25-1.758.069-.513.953-1.195 1.965-1.516 1.012-.321 2.438-1.702 3.169-3.068.731-1.365 1.763-2.483 2.293-2.483 1.127 0 4.698-3.916 4.698-5.153 0-.466.702-.847 1.559-.847.862 0 1.26-.483.892-1.08-.367-.594.281-1.744 1.441-2.557 1.159-.812 2.108-1.889 2.108-2.393 0-.505 2.138-3.052 4.75-5.662 4.79-4.784 8.418-10.079 5.958-8.694-1.306.735 5.366-6.723 9.042-10.106 1.237-1.14 2.25-2.62 2.25-3.29 0-.67.675-1.218 1.5-1.218s1.5-.62 1.5-1.378c0-.757.686-1.946 1.524-2.642s1.301-1.489 1.027-1.762c-.996-.996 5.669-8.218 7.583-8.218 1.521 0 1.76-.367 1.055-1.626-1.001-1.789 1.229-7.374 2.943-7.374.542 0 .731-.412.42-.916s.844-2.326 2.567-4.049c2.873-2.873 3.087-2.942 2.577-.834-2.676 11.074-3.957 15.964-5.236 19.976-.82 2.573-1.927 8.117-2.46 12.321-.533 4.203-1.276 8.14-1.652 8.748-.376.608-1.029 4.964-1.453 9.68-.423 4.716-1.272 12.371-1.887 17.012-.819 6.187-.822 9.654-.009 13 1.879 7.729 4.79 15.492 5.955 15.88 1.682.561 6.046-2.649 6.046-4.447 0-.871 1.257-3.223 2.794-5.227 1.536-2.004 3.449-4.613 4.25-5.796.801-1.184 3.566-4.865 6.144-8.18 2.578-3.315 5.457-7.521 6.397-9.347 2.289-4.447 11.175-17.75 13.774-20.62 1.715-1.894 2.175-2.028 2.619-.763.472 1.345.908 1.309 3.53-.289 1.646-1.002 3.667-3.127 4.492-4.722.825-1.594 2.175-3.707 3-4.695.825-.988 1.539-2.12 1.586-2.514.148-1.23 1.737-4.693 2.394-5.218.344-.275 1.651-2.187 2.904-4.25 1.254-2.063 3.056-3.75 4.006-3.75.95 0 2.601-.639 3.669-1.419 1.692-1.238 1.792-1.813.778-4.5-1.361-3.606-1.059-3.803 1.663-1.081 2.708 2.708 3.589 2.516 3.444-.75-.067-1.512.096-3.589.363-4.614.433-1.66.585-1.687 1.389-.25 1.472 2.631 2.804 1.848 2.804-1.649 0-2.42.581-3.521 2.25-4.264 1.611-.716 2.168-1.707 1.961-3.487-.159-1.367-.024-3.554.3-4.859.564-2.272.648-2.293 1.973-.5 1.322 1.789 1.511 1.795 4.2.148 1.549-.948 2.712-2.16 2.585-2.692-.127-.532.923-1.876 2.334-2.985 1.411-1.11 2.275-2.487 1.921-3.06-.355-.573.508-1.48 1.916-2.015 1.408-.535 2.56-1.411 2.56-1.946 0-2.055 8.415-19.022 9.674-19.505 1.687-.648 1.669.762-.146 11.953-4.914 30.296-12.34 59.197-18.182 70.764-2.533 5.014-5.177 6.711-10.46 6.711-2.494 0-3.265.629-4.698 3.829-1.1 2.458-2.247 3.684-3.201 3.424-1.212-.33-1.235-.229-.125.549 1.05.736 1.189 2.415.607 7.326l-.755 6.372-1.176-3.44c-1.613-4.719-3.538-5.138-3.538-.769 0 8.042-6.207 18.67-13.866 23.743-4.387 2.907-9.134 3.935-9.134 1.979 0-.544 1.781-2.112 3.957-3.486 4.468-2.82 6.314-5.605 5.856-8.829-.41-2.878-4.321-3.452-7.002-1.028-1.113 1.006-2.85 3.449-3.86 5.427-2.081 4.077-6.07 7.063-10.056 7.527-2.649.308-4.555-1.746-3.382-3.645.286-.463.055-1.128-.513-1.479-.568-.351-.774-1.057-.457-1.569.316-.512.129-.931-.417-.931-.545 0-1.277.9-1.626 2-.638 2.012-2.5 2.806-2.5 1.067 0-.513-.978-1.243-2.173-1.622l-2.173-.69 2.324-1.243c1.392-.745 1.829-1.41 1.091-1.656-.818-.272.352-3.103 3.464-8.384 6.255-10.614 11.439-17.608 12.544-16.924.495.306.669-.046.387-.781-.282-.736.393-2.31 1.501-3.499 1.174-1.26 1.601-2.418 1.025-2.774-.545-.337-.99-.109-.99.506s-.337.924-.75.686c-.412-.237-4.575 5.619-9.25 13.014-11.69 18.491-19.679 29.082-25 33.145-3.296 2.517-3.831 3.234-2 2.681 2.867-.865 8.1-3.864 12.594-7.217 4.099-3.058 4.412-2.937 3.137 1.216-1.559 5.079-.301 5.789 6.817 3.848 3.274-.893 6.852-1.574 7.952-1.514 1.1.06 2.964-1.067 4.141-2.505 2.109-2.575 2.152-2.582 2.817-.486 2.545 8.017 19.939-2.589 25.191-15.361 2.113-5.138 2.874-5.544 3.762-2.007 1.327 5.289 3.215 1.484 5.087-10.25.373-2.337 1.096-4.25 1.606-4.25.511 0 1.679-1.575 2.597-3.5 1.132-2.373 2.351-3.5 3.788-3.5 7.271 0 17.133-21.072 24.454-52.25 1.776-7.562 3.689-13.75 4.25-13.75.562 0 .724-.774.361-1.72-.363-.945-.363-1.422 0-1.06.362.363 1.244.124 1.959-.53 1.062-.972 1.006-1.519-.3-2.983-1.293-1.448-1.318-1.685-.134-1.23 1.523.584 5.654-5.077 4.527-6.204-.324-.324-.03-1.279.653-2.123.99-1.224.988-1.382-.009-.783-.787.473-1.25.173-1.25-.808 0-.857.498-1.559 1.107-1.559s.839-.698.511-1.552c-.389-1.014-.193-1.304.563-.836.793.49.939.144.465-1.093-.4-1.042-.109-2.488.687-3.414.76-.883 1.364-2.978 1.343-4.656-.022-1.679.312-3.621.742-4.317.43-.696.528-1.519.217-1.83-.31-.311-.107-1.419.452-2.464.558-1.044 1.185-3.235 1.392-4.868.285-2.258-.027-2.974-1.302-2.985-1.452-.014-1.476-.15-.177-1.019 1.296-.867 1.228-1.223-.5-2.61-1.974-1.585-1.971-1.599.25-1.075 2.925.691 2.9-.083-.038-1.2-2.749-1.046-2.903-4.614-.367-8.485.936-1.428 1.275-2.596.753-2.596-.521 0-.741-1.687-.489-3.75 1.011-8.28.362-14.258-1.847-17-.554-.687-.646-1.25-.204-1.25.441 0-.71-1.35-2.558-3-2.4-2.143-2.88-3-1.68-3 .924 0 1.68-.445 1.68-.989s-1.012-.92-2.25-.837c-1.238.084-4.5-.126-7.25-.466-4.234-.523-5.28-.306-6.827 1.414m-95.049 28.417c-.965 2.514-.681 3.163.498 1.136.584-1.004.851-2.036.593-2.293-.257-.258-.749.263-1.091 1.157M211 54.829c0 1.253 6.797 4.708 7.627 3.877.945-.945.421-1.37-3.928-3.187-2.035-.85-3.699-1.161-3.699-.69M237.5 83c-.34.55-.141 1 .441 1S239 83.55 239 83s-.198-1-.441-1-.719.45-1.059 1M59.186 106.109c-1.273.481-2.06 1.286-1.749 1.789.625 1.012 4.307.326 5.095-.95.828-1.34-.883-1.769-3.346-.839m74.893 15.474c.048 1.165.285 1.402.604.605.289-.722.253-1.585-.079-1.917-.332-.332-.568.258-.525 1.312m92.921 5.25c0 .459.675.834 1.5.834s1.5-.375 1.5-.834c0-.458-.675-.833-1.5-.833s-1.5.375-1.5.833m-76.667 22.623c0 .801.383 1.22.85.931.467-.289.591-.944.274-1.456-.808-1.308-1.124-1.161-1.124.525M202 153.059c0 1.132.45 1.781 1 1.441.55-.34 1-1.266 1-2.059 0-.793-.45-1.441-1-1.441s-1 .927-1 2.059M169 173c-1.293.835-1.266.971.191.985.93.008 1.969-.435 2.309-.985.782-1.266-.542-1.266-2.5 0m-2.5 24.242c-3.603 1.889-5.357 3.286-4.391 3.498 1.365.299 11.891-5.357 11.891-6.389 0-.791-1.801-.097-7.5 2.891m-12 5.758c-.34.55-.141 1 .441 1s1.059-.45 1.059-1-.198-1-.441-1-.719.45-1.059 1m19.568 4.904c-2.287 3.212-2.568 4.669-1.076 5.591 1.429.883 6.008-4.032 6.008-6.45 0-2.953-2.531-2.512-4.932.859m-23.582 10.159c-.844 3.845-.395 4.296 3.442 3.453 3.749-.824 3.762-1.384.098-4.275l-2.863-2.258-.677 3.08M46 222c0 .55.477 1 1.059 1s.781-.45.441-1-.816-1-1.059-1-.441.45-.441 1m-10.11.25c-.498 1.137-.518 6.747-.023 6.735 1.304-.032 2.694-1.528 2.541-2.735a79.429 79.429 0 01-.283-2.75c-.102-1.221-1.825-2.184-2.235-1.25M139 224.5c.685.825 1.695 1.5 2.245 1.5.558 0 .449-.663-.245-1.5-.685-.825-1.695-1.5-2.245-1.5-.558 0-.449.663.245 1.5M18 230c-.901.582-1.025.975-.309.985.655.008 1.469-.435 1.809-.985.767-1.242.421-1.242-1.5 0m41.5 0c.34.55 1.068 1 1.618 1s.722-.45.382-1c-.34-.55-1.068-1-1.618-1s-.722.45-.382 1m158.947 14.915c.311.503.101 1.144-.466 1.425-.567.28-.485.403.181.273 1.586-.311 2.346-2.613.862-2.613-.628 0-.888.412-.577.915M158 247.941c0 2.415.556 2.658 1.349.591.31-.807.133-1.734-.393-2.059-.526-.325-.956.336-.956 1.468" fill="#1976D2" fill-rule="evenodd"/><path fill-opacity=".984" d="M231.64 21.193c-1.641 1.788-1.7 2.328-.5 4.574.881 1.65 1.352 5.923 1.336 12.14-.043 17.078-7.619 38.463-20.405 57.593-2.573 3.85-5.969 9.25-7.547 12-3.486 6.077-17.271 24.534-19.57 26.203-.911.661-3.636 3.967-6.055 7.346-2.42 3.379-6.462 8.688-8.983 11.797-2.522 3.11-8.017 10.604-12.213 16.654-4.195 6.05-9.152 13.025-11.016 15.5-1.864 2.475-5.593 8.21-8.288 12.745-4.517 7.602-4.939 8.031-5.414 5.5-.628-3.351.451-17.245 2.077-26.745 2.224-12.994 11.097-47.977 12.935-51 3.53-5.804 7.656-22.762 6.58-27.048-.986-3.93-6.167-8.452-9.683-8.452-2.515 0-2.894.373-2.894 2.851 0 4.942-2.166 9.457-7.506 15.649-2.846 3.3-10.053 12.525-16.017 20.5-16.163 21.616-30.013 39.406-38.538 49.5-4.181 4.951-8.164 10.052-8.851 11.336-.688 1.284-1.5 2.086-1.804 1.781-.305-.305.181-1.678 1.081-3.051.899-1.372 1.635-3.023 1.635-3.668 0-1.12 8.023-17.601 13.935-28.625 1.542-2.875 3.384-6.7 4.094-8.5.71-1.8 2.264-4.623 3.454-6.273 2.467-3.42 3.928-6.592 3.632-7.883-.29-1.261 4.961-8.617 6.152-8.617.573 0 .761-1.441.443-3.397-.385-2.375-.048-3.954 1.12-5.25 1.865-2.07 5.137-8.549 7.751-15.353.951-2.475 2.293-5.175 2.981-6 .689-.825 1.733-3.3 2.32-5.5.588-2.2 1.695-4.9 2.462-6 .766-1.1 1.665-4.25 1.996-7 .595-4.928 1.449-8.63 3.577-15.493 2.732-8.813-.071-18.088-7.581-25.079-4.969-4.626-7.444-6.108-15.763-9.436-5.762-2.305-7.869-2.662-13.189-2.235-3.483.28-8.192 1.429-10.465 2.553-2.273 1.125-4.676 1.837-5.339 1.582-.663-.254-2.035.453-3.048 1.573C69.519 31.084 67.837 32 66.795 32c-4.556 0-19.504 10.76-29.348 21.126C17.3 74.342 8.263 98.527 13.567 117.032c.862 3.007 1.826 6.818 2.142 8.468.679 3.552 6.028 12.133 9.405 15.088 4.082 3.573 9.508 6.412 12.254 6.412 4.575 0 2.586-5.157-2.868-7.436-3.45-1.441-5.24-4.868-4.632-8.863.151-.99-.417-4.59-1.263-8-1.776-7.169-2.871-16.983-1.822-16.335.395.244.717-1.314.717-3.461 0-2.148-.268-3.905-.595-3.905-.515 0 2.007-8.636 3.797-13 .339-.825.538-1.856.443-2.291C30.763 81.954 39.664 68 41.166 68c.459 0 .843-.562.855-1.25.032-1.898 11.452-13.723 17.304-17.919 4.534-3.251 8.156-5.411 23.479-14.004 1.816-1.019 4.851-2.051 6.742-2.293s4.991-.732 6.887-1.087c4.455-.836 12.564 1.823 15.981 5.239 3.224 3.225 4.513 7.895 4.646 16.839.084 5.62-.69 9.434-3.983 19.627-4.094 12.67-20.445 48.115-25.896 56.136-4.106 6.042-14.736 24.749-19.109 33.627A559.169 559.169 0 0160.292 178c-3.801 7.049-10.299 24.206-10.286 27.16.017 4.216 2.301 8.948 4.991 10.338 3.997 2.068 7.408 2.001 6.591-.128-.947-2.469 3.474-9.098 10.916-16.37 3.659-3.575 8.681-9.61 11.159-13.412 2.479-3.802 7.956-11.174 12.172-16.383s9.261-11.774 11.212-14.588c3.264-4.709 5.928-8.311 19.626-26.541 6.219-8.277 11.711-14.168 10.904-11.697-.337 1.033-1.106 3.958-1.709 6.5-.603 2.541-2.118 8.221-3.368 12.621-2.112 7.433-3.544 13.873-6.45 29-.634 3.3-2.063 12.75-3.176 21-2.137 15.848-1.999 24.817.47 30.61a294.042 294.042 0 012.519 6.119c.899 2.281 1.442 2.594 3.308 1.903 1.228-.454 2.52-1.457 2.87-2.229.629-1.387 1.519-3.07 6.333-11.965 1.358-2.509 4.442-7.009 6.853-10 2.412-2.991 7.462-10.103 11.224-15.805 3.762-5.702 10.262-14.528 14.444-19.614a1516.97 1516.97 0 0013.86-17.133c9.376-11.822 10.102-12.592 11.217-11.903.565.349 1.028-.192 1.028-1.202 0-1.622 5.849-9.651 14.773-20.281 1.617-1.925 4.111-5.375 5.542-7.666 1.432-2.291 3.046-4.439 3.586-4.773.539-.333 2.592-3.859 4.562-7.834 1.969-3.975 6.057-11.952 9.085-17.727 6.662-12.71 8.987-19.894 9.933-30.694.571-6.521.365-9.253-1.007-13.386-1.534-4.618-7.674-13.056-9.34-12.837-.349.046-1.471.996-2.494 2.11m12.436 43.183c-1.528 2.474-3.289 10.559-6.583 30.222-7.023 41.928-14.955 71.106-21.142 77.779-2.393 2.581-3.701 3.015-8.037 2.671-3.207-.256-5.188 3.524-6.99 13.334-1.651 8.995-2.644 10.054-3.775 4.027-.828-4.411-1.681-3.838-2.071 1.389-.629 8.428-9.019 20.349-17.062 24.243-7.797 3.774-9.765.501-2.426-4.035 4.946-3.057 7.043-7.402 4.701-9.744-2.382-2.381-5.249-.647-9.537 5.771-2.896 4.333-4.983 6.141-10.059 8.717-6.803 3.452-12.739 4.371-11.761 1.821.302-.786.862-3.101 1.246-5.145.774-4.128.647-4.116-5.502.503-1.882 1.414-3.457 2.352-3.5 2.084-.043-.267-2.28 1.195-4.972 3.25-6.787 5.183-4.444 4.681 3.941-.844 3.824-2.52 7.361-4.84 7.859-5.156.931-.59.328 3.7-1.004 7.146-.682 1.765-.378 1.86 4.021 1.257 5.68-.779 13.182-3.947 16.315-6.889l2.262-2.126v2.64c0 8.088 13.778 2.799 20.962-8.048 1.664-2.512 3.569-6.07 4.233-7.905 1.504-4.159 2.451-4.227 3.327-.239 1.031 4.695 2.177 2.379 3.974-8.031C204.548 181.183 205.173 180 209.4 180c4.653 0 7.719-2.795 11.996-10.934 7.716-14.684 15.27-42.963 22.572-84.504C248.623 58.08 248.237 61 247.082 61c-.506 0-1.858 1.519-3.006 3.376M164.872 181.75c-1.243 1.586-1.208 1.621.378.378 1.666-1.307 2.195-2.128 1.372-2.128-.207 0-.995.787-1.75 1.75M155 196c-.589 1.1-.845 2-.57 2s.981-.9 1.57-2c.589-1.1.845-2 .57-2s-.981.9-1.57 2m-7.244 11.673c-3.159 4.77-5.565 8.851-5.346 9.07.463.464 5.077-6.176 9.027-12.993 4.26-7.35 2.649-5.634-3.681 3.923m26.317-.038c-2.277 2.895-2.756 6.365-.878 6.365 1.893 0 6.805-5.188 6.805-7.187 0-2.725-3.521-2.237-5.927.822" fill="#1976D2" fill-rule="evenodd"/></svg>